<!-- <svg xmlns="http://www.w3.org/2000/svg" fill="none" viewBox="0 0 128 128">
    <path d="M50.4 78.5a75.1 75.1 0 0 0-28.5 6.9l24.2-65.7c.7-2 1.9-3.2 3.4-3.2h29c1.5 0 2.7 1.2 3.4 3.2l24.2 65.7s-11.6-7-28.5-7L67 45.5c-.4-1.7-1.6-2.8-2.9-2.8-1.3 0-2.5 1.1-2.9 2.7L50.4 78.5Zm-1.1 28.2Zm-4.2-20.2c-2 6.6-.6 15.8 4.2 20.2a17.5 17.5 0 0 1 .2-.7 5.5 5.5 0 0 1 5.7-4.5c2.8.1 4.3 1.5 4.7 4.7.2 1.1.2 2.3.2 3.5v.4c0 2.7.7 5.2 2.2 7.4a13 13 0 0 0 5.7 4.9v-.3l-.2-.3c-1.8-5.6-.5-9.5 4.4-12.8l1.5-1a73 73 0 0 0 3.2-2.2 16 16 0 0 0 6.8-11.4c.3-2 .1-4-.6-6l-.8.6-1.6 1a37 37 0 0 1-22.4 2.7c-5-.7-9.7-2-13.2-6.2Z" />
    <style>
        path { fill: #000; }
        @media (prefers-color-scheme: dark) {
            path { fill: #FFF; }
        }
    </style>
</svg> -->
<svg id="svg" xmlns="http://www.w3.org/2000/svg" xmlns:xlink="http://www.w3.org/1999/xlink" width="96" height="96" viewBox="0, 0, 400,400"><g id="svgg"><path id="path0" d="M50.046 25.434 C -8.594 116.162,-19.982 282.969,28.680 338.393 C 113.149 434.597,337.614 417.012,389.925 310.092 C 404.367 280.573,403.390 160.931,388.303 111.392 C 371.887 57.493,339.922 0.000,326.371 -0.000 C 309.373 -0.000,233.333 66.330,233.333 81.157 C 233.333 86.308,227.069 87.500,200.000 87.500 C 172.931 87.500,166.667 86.308,166.667 81.157 C 166.667 65.941,91.435 0.000,74.075 0.000 C 69.357 0.000,60.265 9.623,50.046 25.434 M108.058 51.118 C 130.819 68.864,140.229 81.774,147.482 105.208 C 149.468 111.625,155.769 112.500,200.000 112.500 C 244.269 112.500,250.519 111.631,252.418 105.208 C 260.478 77.953,313.201 23.958,324.771 31.109 C 355.797 50.284,390.840 224.674,375.021 281.174 C 339.915 406.562,60.096 406.600,24.992 281.222 C 9.962 227.540,31.936 103.550,67.016 44.093 C 77.595 26.164,75.617 25.826,108.058 51.118 M107.272 178.125 C 93.414 193.624,97.984 217.262,116.307 224.851 C 147.348 237.708,171.428 201.190,147.613 177.375 C 138.825 168.587,115.411 169.022,107.272 178.125 M248.562 178.453 C 232.714 195.965,247.786 229.167,271.585 229.167 C 282.615 229.167,300.000 210.731,300.000 199.033 C 300.000 173.652,265.426 159.819,248.562 178.453 M145.553 231.588 C 141.143 236.901,141.095 239.795,145.305 246.536 C 149.884 253.868,149.597 254.618,142.971 252.641 C 90.429 236.968,48.625 236.161,50.749 250.862 C 52.625 263.842,148.463 284.271,156.421 273.387 C 165.872 260.463,178.530 281.492,179.983 312.529 C 181.860 352.604,201.311 354.581,203.354 314.904 C 204.885 285.189,218.137 261.386,226.660 273.042 C 235.936 285.728,330.820 264.151,332.568 248.958 C 333.609 239.914,332.170 237.500,325.737 237.500 C 317.132 237.500,253.217 248.847,240.362 252.656 C 233.737 254.620,233.450 253.867,238.028 246.536 C 242.238 239.795,242.190 236.901,237.781 231.588 C 229.836 222.016,153.497 222.016,145.553 231.588 M200.000 256.250 C 197.147 259.688,193.368 262.500,191.602 262.500 C 189.836 262.500,187.312 259.688,185.993 256.250 C 184.242 251.685,186.506 250.000,194.391 250.000 C 203.515 250.000,204.384 250.968,200.000 256.250 M51.507 277.083 C 46.228 290.840,53.807 294.862,102.275 304.026 C 146.842 312.452,151.610 312.676,157.663 306.623 C 168.556 295.730,156.762 289.195,108.795 279.543 C 57.165 269.155,54.592 269.044,51.507 277.083 M270.833 280.561 C 227.376 289.523,209.588 302.681,230.224 310.599 C 246.564 316.870,331.250 294.014,331.250 283.333 C 331.250 269.662,325.057 269.378,270.833 280.561 " stroke="none" fill="#000000" fill-rule="evenodd"></path></g></svg>
